<?xml version="1.0" standalone="no"?>
<!DOCTYPE svg PUBLIC "-//W3C//DTD SVG 20010904//EN"
 "http://www.w3.org/TR/2001/REC-SVG-20010904/DTD/svg10.dtd">
<svg version="1.0" xmlns="http://www.w3.org/2000/svg"
 width="1052.000000pt" height="1052.000000pt" viewBox="0 0 1052.000000 1052.000000"
 preserveAspectRatio="xMidYMid meet">
<metadata>
Created by potrace 1.11, written by Peter Selinger 2001-2013
</metadata>
<g transform="translate(0.000000,1052.000000) scale(0.100000,-0.100000)"
fill="#000000" stroke="none">
<path d="M6601 10487 c-7 -20 -17 -37 -22 -37 -5 0 -9 -7 -9 -15 0 -8 -4 -23
-9 -33 -18 -32 -69 -147 -76 -171 -4 -13 -14 -40 -23 -60 -9 -20 -16 -38 -17
-41 0 -3 -3 -9 -6 -15 -10 -17 -43 -120 -38 -121 2 0 -1 -7 -7 -15 -6 -8 -15
-27 -19 -44 -5 -16 -10 -34 -11 -40 -19 -58 -66 -213 -68 -225 -2 -8 -9 -35
-16 -60 -15 -55 -12 -43 -50 -225 -17 -82 -33 -170 -36 -195 -3 -24 -6 -46 -7
-47 -2 -1 -52 14 -112 33 -61 19 -123 37 -140 40 -16 2 -37 7 -45 9 -8 2 -31
6 -50 9 -19 3 -46 8 -60 11 -93 20 -444 29 -560 15 -95 -12 -259 -50 -315 -75
-16 -7 -64 -27 -105 -45 -136 -58 -316 -175 -425 -274 -43 -40 -43 -40 -82 39
-31 63 -74 138 -89 156 -8 8 -14 19 -14 22 0 7 -97 146 -110 157 -3 3 -17 21
-31 40 -61 81 -306 310 -333 310 -3 0 -15 8 -26 17 -30 26 -186 113 -230 128
-3 1 -18 7 -35 14 -41 17 -107 41 -125 46 -8 2 -15 4 -15 5 0 1 -7 3 -15 5 -8
2 -44 10 -80 19 -35 8 -66 14 -68 12 -8 -8 -102 -276 -107 -306 -3 -18 -10
-40 -14 -49 -8 -15 -48 -169 -57 -221 -3 -14 -9 -41 -14 -60 -5 -19 -12 -51
-15 -70 -3 -19 -10 -57 -15 -85 -5 -27 -12 -75 -15 -105 -2 -30 -7 -65 -9 -77
-7 -33 -18 -200 -18 -283 -1 -96 10 -307 18 -340 3 -14 7 -38 9 -55 2 -16 6
-42 9 -57 3 -16 8 -40 11 -55 25 -127 100 -336 163 -453 85 -159 213 -320 340
-431 28 -25 40 -42 37 -55 -23 -98 -91 -312 -117 -363 -17 -36 -57 -91 -89
-125 l-59 -60 -92 90 c-51 50 -106 102 -123 117 -64 55 -75 64 -100 83 -15 10
-36 27 -48 37 -59 50 -267 179 -384 239 -73 37 -133 65 -133 63 0 -2 -26 8
-57 22 -56 24 -294 108 -398 140 -27 8 -54 18 -60 21 -5 4 -12 7 -15 7 -10 1
-86 27 -105 35 -37 17 -75 30 -75 25 0 -3 40 -58 88 -123 105 -140 252 -356
252 -371 0 -6 5 -11 10 -11 6 0 10 -7 10 -15 0 -8 4 -15 9 -15 5 0 11 -8 14
-17 6 -20 49 -95 58 -103 14 -12 181 -366 217 -460 21 -58 43 -114 48 -125 4
-11 8 -24 9 -30 0 -5 6 -23 12 -40 19 -50 65 -209 64 -222 0 -2 5 -17 10 -35
10 -34 38 -158 44 -193 2 -11 6 -36 9 -55 4 -19 8 -48 10 -65 3 -16 7 -46 10
-65 17 -115 19 -167 20 -370 1 -200 -6 -325 -19 -370 -2 -8 -7 -31 -9 -50 -3
-19 -12 -64 -21 -100 -9 -36 -18 -74 -21 -85 -9 -46 -14 -65 -44 -168 -16 -60
-32 -118 -34 -130 -3 -12 -5 -22 -6 -22 -1 0 -3 -7 -5 -15 -1 -8 -13 -53 -25
-100 -24 -94 -26 -101 -34 -156 -4 -22 -8 -46 -11 -54 -16 -60 -37 -360 -25
-360 3 0 5 -19 6 -43 1 -59 26 -198 42 -237 3 -8 7 -19 7 -25 1 -5 4 -17 7
-25 3 -8 14 -37 24 -65 9 -27 27 -70 38 -95 11 -25 21 -47 21 -50 0 -3 9 -21
20 -40 11 -19 18 -38 17 -42 -1 -5 2 -8 8 -8 5 0 10 -5 10 -10 0 -17 79 -139
146 -226 65 -84 178 -203 249 -262 80 -67 277 -189 320 -198 6 -1 38 -14 71
-28 34 -14 72 -27 85 -30 13 -2 47 -10 74 -16 61 -14 74 -16 265 -36 78 -8
354 -9 425 -1 67 7 195 34 246 52 51 18 49 19 44 -3 -1 -9 -6 -71 -9 -137 -4
-66 -9 -151 -12 -190 -3 -38 -7 -113 -9 -165 -2 -52 -7 -129 -10 -170 -3 -41
-7 -116 -10 -165 -2 -50 -6 -131 -10 -180 -26 -387 -27 -433 -9 -487 33 -101
141 -183 250 -192 57 -4 157 19 187 43 86 70 123 131 136 226 10 80 10 79 46
205 15 52 28 102 29 110 1 8 8 31 14 51 7 20 15 45 17 55 2 10 12 46 21 79 9
33 18 68 20 78 6 27 11 45 39 142 14 50 27 99 29 110 3 11 11 41 19 67 8 27
13 48 10 48 -3 0 0 7 7 15 7 8 9 15 5 15 -4 0 -2 7 5 15 7 8 10 15 7 15 -3 0
3 30 14 68 11 37 22 76 25 87 2 11 10 42 17 70 l13 50 232 1 c192 2 232 -1
233 -12 1 -14 4 -27 9 -41 1 -5 2 -12 1 -16 -1 -4 3 -16 8 -25 5 -9 11 -30 14
-47 3 -16 10 -45 16 -62 5 -18 8 -33 5 -33 -3 0 0 -8 5 -18 6 -11 12 -30 15
-43 2 -13 32 -132 65 -264 34 -132 64 -249 66 -260 14 -62 16 -75 15 -77 -1
-2 4 -16 10 -33 7 -16 13 -37 15 -45 3 -13 33 -134 67 -265 5 -22 11 -47 13
-55 2 -8 8 -30 14 -47 5 -18 8 -33 5 -33 -12 0 49 -101 81 -133 91 -91 235
-111 350 -49 53 28 113 95 135 152 20 50 21 69 18 201 -3 80 -8 150 -11 156
-4 7 -3 14 3 18 6 4 8 10 5 16 -6 9 -11 86 -20 309 -3 69 -7 154 -10 190 -4
68 -14 266 -21 430 -2 52 -6 138 -9 190 -10 197 -18 356 -18 380 0 14 16 51
36 81 20 31 52 91 73 135 20 43 43 90 50 104 13 26 13 26 166 29 75 1 67 -5
218 161 36 40 93 101 127 137 l62 66 53 -23 c106 -47 240 -27 324 47 30 27 83
93 83 103 0 3 5 19 12 35 12 31 15 172 6 285 l-5 65 56 61 c32 34 100 108 152
164 52 57 127 137 167 179 39 42 88 96 109 119 21 24 56 63 79 86 22 24 60 64
85 90 34 35 40 46 25 44 -11 -2 -26 -7 -32 -11 -14 -9 -16 5 -13 81 1 23 -1
42 -4 42 -2 0 -35 -6 -73 -14 -37 -8 -84 -17 -103 -20 -90 -14 -109 -17 -167
-24 -44 -6 -63 -5 -63 2 0 8 -3 7 -8 0 -4 -7 -45 -12 -103 -13 -54 -1 -108 -4
-120 -6 -13 -2 -42 -6 -64 -9 -40 -5 -59 -9 -105 -20 -23 -6 -28 -1 -60 61
-32 63 -68 124 -88 148 -5 6 -17 24 -27 40 -99 156 -319 368 -520 502 -119 79
-361 203 -397 203 -21 0 5 15 67 39 71 28 279 133 283 144 2 4 8 7 14 7 6 0
55 29 109 65 55 36 104 65 109 65 4 0 10 3 12 8 2 4 23 20 48 37 25 16 64 43
86 60 23 16 55 39 70 50 47 34 249 188 254 194 3 4 30 26 60 51 118 96 389
361 465 454 22 27 46 55 53 63 7 7 11 13 7 13 -4 0 6 13 22 29 30 30 134 180
167 241 45 83 86 166 86 173 0 4 -9 3 -21 -3 -64 -35 -184 -54 -231 -38 -39
14 -35 25 12 39 22 7 40 16 40 21 0 4 6 8 14 8 14 0 90 44 156 89 44 31 113
101 106 108 -3 3 -11 1 -18 -4 -17 -14 -130 -41 -197 -48 -124 -12 -283 43
-373 130 -27 25 -48 50 -48 56 0 14 -88 196 -111 229 -9 14 -17 28 -18 33 0 4
-23 45 -50 91 l-50 84 15 54 c7 30 16 74 19 99 3 24 8 60 12 79 9 48 9 415 0
470 -4 25 -9 63 -12 85 -3 22 -10 60 -15 85 -6 25 -12 54 -14 65 -2 11 -14 56
-26 100 -12 44 -24 89 -27 100 -3 11 -9 29 -13 40 -5 11 -25 63 -46 115 -20
52 -52 128 -70 168 -19 41 -34 78 -34 83 0 5 -4 9 -10 9 -5 0 -10 8 -10 18 0
10 -4 22 -9 27 -8 9 -25 38 -78 135 -21 40 -31 56 -121 195 -61 93 -168 244
-181 255 -4 3 -40 50 -81 105 -41 55 -77 102 -80 105 -5 4 -124 156 -156 199
-9 12 -13 8 -23 -22z m-2828 -4731 c21 -13 300 -135 347 -151 3 -1 12 -5 20
-8 22 -9 178 -66 230 -84 25 -8 47 -17 49 -19 7 -7 -32 -44 -46 -44 -7 0 -35
-11 -61 -24 -99 -50 -167 -144 -187 -257 -3 -18 -8 -35 -10 -39 -2 -4 -7 -20
-9 -36 -3 -16 -8 -40 -11 -54 -3 -14 -8 -47 -11 -75 -4 -27 -8 -53 -10 -57 -3
-4 -7 -58 -10 -120 -4 -80 -13 -136 -31 -193 -14 -44 -38 -127 -54 -184 -15
-57 -30 -106 -33 -109 -3 -3 -3 24 0 59 15 182 5 556 -20 714 -3 17 -8 50 -11
75 -23 163 -147 576 -176 588 -8 3 -1 32 7 32 3 0 15 -6 27 -14z"/>
</g>
</svg>
